<svg xmlns="http://www.w3.org/2000/svg" width="205" height="183"><path fill="#929191" d="M157.7 0h-12.1a59 59 0 0 0-37.1 10.9c-2.5 1.9-4.6 4.1-6.4 6.7a31.3 31.3 0 0 0-6.2-6.3A58.3 58.3 0 0 0 59.3.5h-12c-4 .3-5.9 2.2-5.9 5.6v8.7h17.9c23.3 0 35 11 35.1 32.9 0 21.8-11.8 32.7-35.1 32.7H41.4V89.2c0 3.4 2 5.3 5.9 5.6h12c15.1 0 27.3-3.6 36.6-10.8 2.4-1.8 4.4-3.9 6.2-6.3 1.8 2.6 4 4.8 6.4 6.7a59 59 0 0 0 37 11h12.2c4-.4 6-2.3 6-5.8V80.8h-18.1c-19.2 0-30.6-7.3-34.3-22h34.1c3.4 0 5-2.3 5-7s-1.6-7-5-7h-35.2c1-20.1 12.8-30.3 35.4-30.3h18V5.6c0-3.5-2-5.4-5.9-5.7"/><path fill="#1D1D1B" d="M120.5 143c0 2-.7 2.9-2 2.9h-17.2a3 3 0 0 1-1.9-.7 2 2 0 0 1-.8-1.7V110c0-1.5 1-2.2 3-2.2s3 .7 3 2.2v30.5h14c1.2 0 1.9.9 1.9 2.7m-41.8-29.5c3 3.4 4.6 7.9 4.6 13.6 0 5.7-1.5 10.2-4.6 13.6-3.1 3.4-8 5-14.5 5h-2.7c-6.7 0-11.5-1.6-14.6-5-3-3.4-4.6-8-4.6-13.6 0-5.7 1.5-10.2 4.6-13.6 3-3.4 8-5 14.6-5h2.7c6.6-.1 11.4 1.6 14.5 5m-.9 13.6c0-8.5-4.5-12.8-13.6-12.8h-2.7c-9.2 0-13.7 4.3-13.7 12.8s4.5 12.7 13.7 12.7h2.7c9 0 13.6-4.2 13.6-12.7m-56.3-14A23 23 0 0 0 7 109H2.3c-1.5.1-2.3.9-2.3 2.2v3.4h7c9.2 0 13.8 4.4 13.9 13 0 8.6-4.7 12.9-13.9 12.9H0v3.4c0 1.4.8 2.1 2.3 2.3h4.8a23 23 0 0 0 14.4-4.3c3.6-2.8 5.5-7.5 5.5-14v-.3-.4c0-6.5-1.9-11.1-5.5-14m139-4.2h-4.8a23 23 0 0 0-14.4 4.3c-3.7 2.8-5.5 7.4-5.5 13.9v.8c0 6.4 1.8 11 5.5 14a23 23 0 0 0 14.4 4.2h4.7c1.6-.2 2.4-.9 2.4-2.3v-3.4h-7c-9.3 0-13.9-4.3-14-13 .1-8.5 4.7-12.8 14-12.8h7v-3.5c0-1.3-.8-2-2.4-2.2m42.3 0H198a23 23 0 0 0-14.4 4.3c-3.6 2.8-5.5 7.4-5.5 13.9v.8c0 6.4 1.9 11 5.5 14a23 23 0 0 0 14.5 4.2h4.7c1.6-.2 2.3-.9 2.3-2.3v-3.4h-7c-7.5 0-12-2.9-13.4-8.6H198c1.3 0 2-.9 2-2.7 0-1.8-.7-2.7-2-2.7h-13.8c.4-7.9 5-11.8 13.8-11.8h7v-3.5c0-1.3-.7-2-2.3-2.2"/><path d="M.1 152.2H205V183H.1z"/><path fill="#FFF" d="M17.5 175.9v-12l-5.2 9.2h-1L6 163.8v12H4v-15.5h2.1l5.7 10.1 5.7-10.1h2v15.6zM30.8 174.2c.9 0 1.6-.2 2.2-.5.7-.4 1.1-.8 1.5-1.4.3-.5.6-1.2.7-2 .2-.6.3-1.4.3-2.1v-8h2v8c0 1-.2 2-.4 3-.3 1-.6 1.7-1.2 2.5s-1.2 1.3-2 1.7c-.9.4-1.9.6-3 .6-1.3 0-2.4-.2-3.2-.7-.9-.4-1.6-1-2.1-1.7s-.9-1.6-1.1-2.5-.4-2-.4-3v-7.8h2v7.9c0 .7.1 1.5.3 2.2.1.8.4 1.4.7 2a4.4 4.4 0 0 0 3.7 1.9M40.4 173.6l1.2.5c.5.2 1 .3 1.7.3s1.3-.2 1.7-.4c.5-.3.8-.7 1-1.2s.4-1.2.5-2l.1-2.6v-8h2v8c0 1.2 0 2.3-.2 3.3 0 1-.3 1.8-.7 2.5s-1 1.2-1.6 1.6c-.7.3-1.7.5-2.8.5-1.4 0-2.5-.3-3.4-1l.5-1.5zM63.9 174.1v1.8H53.2v-15.6h10.5v1.7h-8.5v5h7.4v1.7h-7.4v5.4zM67.7 175.9v-15.6h6.6c.7 0 1.4.1 2 .4s1 .7 1.4 1.1.8 1 1 1.7c.3.5.4 1.1.4 1.8a5.4 5.4 0 0 1-1 3c-.2.3-.5.7-1 1a4 4 0 0 1-1.3.6l3.8 6h-2.3l-3.5-5.6h-4.2v5.6h-2zm2-7.4h4.7c.4 0 .7 0 1-.2l1-.8.5-1 .2-1.2c0-.5-.1-.9-.3-1.3-.1-.4-.3-.7-.6-1-.2-.3-.5-.5-.9-.7-.3-.2-.7-.3-1-.3h-4.7v6.5zM100.5 174.1v1.8H89.9v-15.6h10.4v1.7h-8.4v5h7.3v1.7h-7.3v5.4zM113.5 163.5l-.7-.5-1-.6a7.2 7.2 0 0 0-2.6-.5c-1.2 0-2.1.2-2.7.7-.5.5-.8 1-.8 1.9 0 .4 0 .7.2 1 .2.3.4.5.8.7l1.3.6 1.8.4 2.2.6c.6.3 1.2.5 1.7.9a3.4 3.4 0 0 1 1.4 3 3.9 3.9 0 0 1-1.6 3.3c-.6.4-1.2.6-1.8.8-.7.2-1.5.2-2.3.2a10.4 10.4 0 0 1-6.3-2.2l.9-1.6c.2.2.5.5 1 .7.3.3.7.5 1.2.7a9.4 9.4 0 0 0 3.3.7c1 0 2-.2 2.6-.6.6-.4.9-1 .9-1.8a2 2 0 0 0-.3-1.1c-.2-.3-.5-.6-.9-.8l-1.4-.6-2-.5a19 19 0 0 1-2-.6c-.6-.2-1.1-.5-1.5-.8a3 3 0 0 1-1-1.1c-.2-.5-.3-1-.3-1.6 0-.8.2-1.4.5-2 .2-.6.6-1 1.1-1.5.5-.3 1.1-.6 1.8-.8.7-.2 1.4-.3 2.3-.3a8 8 0 0 1 5 1.7l-.8 1.6zM125.5 175.9v-15.6h6.5c.7 0 1.3.1 1.9.4l1.5 1.1c.5.4.7 1 1 1.7a5.4 5.4 0 0 1-1 5.3c-.4.4-.9.8-1.4 1-.6.3-1.2.5-2 .5h-4.6v5.6h-2zm2-7.4h4.5a2.4 2.4 0 0 0 2-1l.5-1a3.9 3.9 0 0 0 0-2.5l-.7-1c-.2-.3-.5-.6-.9-.7-.3-.2-.7-.3-1-.3h-4.5v6.5zM146.6 176c-1.1 0-2.1-.2-3-.7-1-.4-1.7-1-2.3-1.8a8.1 8.1 0 0 1-2-5.4 8.1 8.1 0 0 1 4.4-7.3c.9-.4 1.9-.6 3-.6 1 0 2 .2 3 .7a7.7 7.7 0 0 1 3.7 4.3 8.2 8.2 0 0 1-3.9 10.2c-.9.4-1.9.6-3 .6m-5.3-8a7 7 0 0 0 1.5 4.3 4.8 4.8 0 0 0 3.9 1.9c.9 0 1.6-.2 2.3-.5.6-.4 1.2-.8 1.6-1.4.5-.6.9-1.3 1.1-2a7 7 0 0 0 0-4.5c-.3-.8-.6-1.4-1.1-2s-1-1-1.7-1.3c-.7-.4-1.4-.5-2.2-.5-.8 0-1.6.1-2.2.5-.7.3-1.3.8-1.7 1.4-.5.6-.8 1.2-1 2a7 7 0 0 0-.5 2.2M157.8 175.9v-15.6h5.4c1.3 0 2.4.2 3.3.6a6.7 6.7 0 0 1 3.8 4.1 9.3 9.3 0 0 1 0 6.2 6.8 6.8 0 0 1-4 4c-.9.5-2 .7-3 .7h-5.5zm11-7.8c0-1-.2-1.7-.4-2.5s-.6-1.3-1-1.9a5 5 0 0 0-1.8-1.2c-.7-.3-1.5-.5-2.4-.5h-3.4v12.1h3.4c1 0 1.7-.1 2.4-.4.7-.3 1.3-.8 1.7-1.3.5-.5.9-1.2 1.1-2 .2-.7.4-1.5.4-2.3M185.3 174.1v1.8h-10.6v-15.6H185v1.7h-8.5v5h7.4v1.7h-7.4v5.4zM189 175.9v-15.6h6.8c.6 0 1.3.1 1.9.4l1.5 1.1c.5.4.7 1 1 1.7a5.4 5.4 0 0 1-.5 4.8l-1.1 1a4 4 0 0 1-1.4.6l3.8 6h-2.2l-3.6-5.6H191v5.6h-2zm2-7.4h4.8c.4 0 .8 0 1-.2l1-.8.5-1 .2-1.2c0-.5 0-.9-.2-1.3l-.7-1c-.2-.3-.5-.5-.9-.7-.3-.2-.7-.3-1-.3H191v6.5z"/></svg>