<svg xmlns="http://www.w3.org/2000/svg" width="26" height="26"><g fill-rule="evenodd" clip-rule="evenodd" fill="#FFF"><path d="M26 6.7l-.5 2-1.9 7.4c-.1.7-.4 1-1.1 1H7.7c-.7 0-1-.3-1.2-1l-3-12.7c0-.3 0-.3-.4-.3H1.3c-.6 0-1-.2-1.3-.8v-.4c.2-.6.6-.8 1.2-.8H4c.7 0 1 .3 1.2 1l.7 3.2.1.2H24.8c.6 0 1 .2 1.2.8v.4zm-19.5.8L8.3 15h.2a14538.7 14538.7 0 0 1 13.4-.2l1.4-5.5.5-2H6.5zM17.3 21.7a3.2 3.2 0 1 1 6.5 0 3.2 3.2 0 0 1-6.5 0zm2 0c0 .7.6 1.2 1.3 1.2.7 0 1.3-.5 1.3-1.2 0-.8-.6-1.3-1.3-1.3-.7 0-1.3.6-1.3 1.3zM12 21.6a3.2 3.2 0 1 1-6.4 0 3.2 3.2 0 0 1 6.5 0zm-1.9 0a1.3 1.3 0 1 0-2.6 0c0 .8.6 1.3 1.3 1.3.7 0 1.3-.5 1.3-1.2z"/></g></svg>