<svg xmlns="http://www.w3.org/2000/svg" width="26" height="26"><g fill-rule="evenodd" clip-rule="evenodd"><path d="M25.5 6.3c-.1.5-.4 1-1 1.2l-.8.2h-3.6c-1 0-1.8-.6-1.8-1.6v-4c0-.8.5-1.3 1.3-1.5V.5h4.5l.5.2c.5.2.8.7.9 1.2v4.4zm-3.6-4.5H20c-.3 0-.4.1-.4.4V6c0 .3.1.4.4.4h3.8c.3 0 .4-.1.4-.4V2.2c0-.3-.1-.4-.5-.4H22zM.5 19.7c.1-.5.4-1 1-1.2l.8-.2h3.6c1 0 1.5.4 1.7 1.2l.1.6v3.4c0 1-.3 1.7-1.4 2H2l-.6-.2c-.5-.2-.8-.7-.9-1.2v-4.4zm3.6 4.5H6c.3 0 .4-.1.4-.4V20c0-.4-.1-.5-.4-.5H2.3c-.4 0-.5.1-.5.4v3.7c0 .4 0 .5.5.5H4zM.5 10.9c.1-.6.4-1 .9-1.3l.9-.2h3.6c1.1 0 1.8.7 1.8 1.8v3.6c0 .9-.4 1.5-1.2 1.7l-.6.1H2.5c-1 0-1.8-.5-2-1.5V11zm1.3 2v2c0 .3.1.4.4.4H6c.3 0 .4-.1.4-.4V11c0-.3-.1-.4-.4-.4H2.3c-.4 0-.5.1-.5.4V13zM25.5 15.1c-.1.6-.4 1-.9 1.3l-.8.2H20c-1 0-1.7-.6-1.7-1.6v-4c0-1 .7-1.6 1.7-1.6h3.8c.9 0 1.4.5 1.7 1.3v4.4zm-1.3-2v-2c0-.3-.1-.4-.5-.4H20c-.3 0-.4.1-.4.4V15c0 .3.1.4.4.4h3.7c.4 0 .5-.1.5-.4V13zM6.3.5c.5.1 1 .4 1.2.9l.2.8v3.7c0 1-.5 1.5-1.3 1.7H2.1C1.3 7.7.7 7.3.5 6.5v-.1-4.4l.2-.5C.9 1 1.4.6 1.9.5h4.4zM4.1 1.8H2.3c-.4 0-.5 0-.5.5v3.6c0 .4.1.5.5.5H6c.3 0 .4-.1.4-.5V2.3c0-.4 0-.5-.5-.5H4.1zM19.7 25.5c-.5-.1-1-.4-1.2-1l-.2-.6v-4.1c0-.8.7-1.5 1.5-1.5h4c1 0 1.5.5 1.7 1.3v4.5l-.2.5c-.2.5-.7.8-1.2.9h-4.4zm2.2-1.3h1.8c.4 0 .5 0 .5-.5V20c0-.3-.1-.4-.4-.4H20c-.3 0-.4.1-.4.4v3.7c0 .4.1.5.5.5h1.8zM15.2.5c.5.1 1 .4 1.2.9l.2.8V6c0 1-.6 1.7-1.6 1.7h-4C10 7.7 9.4 7 9.4 6V2.2c0-.9.4-1.4 1.4-1.7h4.4zm.1 3.6V2.3c0-.4 0-.5-.5-.5h-3.6c-.4 0-.5 0-.5.5v3.6c0 .4 0 .5.5.5h3.6c.4 0 .5-.1.5-.5V4.1zM10.8 25.5c-.5-.1-1-.4-1.2-.9l-.2-.8V20c0-1 .6-1.7 1.6-1.7h4c1 0 1.6.7 1.6 1.7v3.8c0 .9-.5 1.4-1.3 1.7h-4.5zm2.2-1.3h1.9c.3 0 .4-.1.4-.5V20c0-.3-.1-.4-.4-.4H11c-.3 0-.4.1-.4.4v3.7c0 .4.1.5.4.5H13zM16.6 13V15c0 1-.7 1.7-1.7 1.7h-3.8c-1 0-1.7-.7-1.7-1.7V11c0-1 .7-1.7 1.7-1.7H15c1 0 1.7.7 1.7 1.8V13zm-1.3 0v-1.9c0-.3-.1-.4-.4-.4h-3.7c-.4 0-.5.1-.5.5v3.6c0 .4.1.5.5.5h3.6c.4 0 .5 0 .5-.5V13z"/></g></svg>