<?xml version="1.0" encoding="utf-8"?>
<!-- Generator: Adobe Illustrator 16.0.0, SVG Export Plug-In . SVG Version: 6.00 Build 0)  -->
<!DOCTYPE svg PUBLIC "-//W3C//DTD SVG 1.1//EN" "http://www.w3.org/Graphics/SVG/1.1/DTD/svg11.dtd">
<svg version="1.1" id="Capa_1" xmlns="http://www.w3.org/2000/svg" xmlns:xlink="http://www.w3.org/1999/xlink" x="0px" y="0px"
	 width="26px" height="26px" viewBox="0 0 26 26" enable-background="new 0 0 26 26" xml:space="preserve">
<g>
	<path fill-rule="evenodd" clip-rule="evenodd" d="M25.498,2.99c0,0.846,0,1.654,0,2.51c-0.132,0-0.263,0-0.396,0
		c-4.008,0-8.015,0.001-12.023-0.006c-0.223,0-0.331,0.062-0.443,0.267c-0.68,1.248-1.682,2.07-3.136,2.224
		c-0.9,0.095-1.693-0.214-2.405-0.744C6.553,6.837,6.121,6.335,5.831,5.724c-0.084-0.178-0.184-0.231-0.376-0.23
		C3.919,5.503,2.385,5.499,0.85,5.499c-0.106,0-0.212,0-0.342,0c0-0.832,0-1.647,0-2.509c0.112,0,0.225,0,0.337,0
		c1.525,0,3.05-0.005,4.575,0.005c0.212,0.001,0.319-0.058,0.424-0.253C6.456,1.601,7.36,0.811,8.657,0.552
		c0.93-0.186,1.784,0.05,2.561,0.574c0.611,0.412,1.101,0.941,1.421,1.606c0.104,0.216,0.229,0.262,0.448,0.261
		C17.104,2.987,21.121,2.99,25.14,2.99C25.254,2.99,25.368,2.99,25.498,2.99z M7.999,4.245C7.998,4.938,8.553,5.498,9.242,5.499
		c0.689,0,1.247-0.558,1.247-1.25c0-0.693-0.556-1.255-1.244-1.257C8.559,2.99,8,3.552,7.999,4.245z"/>
	<path fill-rule="evenodd" clip-rule="evenodd" d="M25.5,20.521c0,0.842,0,1.649,0,2.509c-0.12,0-0.232,0-0.344,0
		c-4.429,0-8.856,0.002-13.285-0.006c-0.258-0.001-0.379,0.078-0.511,0.308c-0.808,1.403-1.966,2.299-3.659,2.167
		c-1.42-0.11-2.401-0.956-3.077-2.165c-0.127-0.229-0.248-0.314-0.508-0.311c-1.095,0.016-2.189,0.006-3.284,0.006
		c-0.105,0-0.21,0-0.331,0c0-0.843,0-1.651,0-2.508c0.1,0,0.202,0,0.304,0c1.114,0,2.229-0.005,3.343,0.005
		c0.215,0.002,0.333-0.047,0.447-0.259c0.676-1.248,1.677-2.069,3.13-2.233c0.714-0.082,1.377,0.109,1.992,0.464
		c0.738,0.426,1.31,1.021,1.684,1.787c0.094,0.193,0.201,0.24,0.399,0.239c4.438-0.004,8.876-0.003,13.314-0.003
		C25.23,20.521,25.347,20.521,25.5,20.521z M7.983,20.521c-0.684,0.004-1.253,0.579-1.246,1.259
		c0.007,0.684,0.583,1.252,1.264,1.246c0.685-0.006,1.246-0.576,1.242-1.263C9.239,21.077,8.672,20.517,7.983,20.521z"/>
	<path fill-rule="evenodd" clip-rule="evenodd" d="M0.5,14.258c0-0.845,0-1.651,0-2.497c0.117,0,0.221,0,0.325,0
		c4.028,0,8.057,0,12.086,0.005c0.219,0.001,0.333-0.054,0.447-0.262c0.704-1.288,1.74-2.169,3.25-2.23
		c1.636-0.065,2.756,0.832,3.53,2.201c0.124,0.219,0.237,0.295,0.488,0.293c1.524-0.014,3.05-0.007,4.575-0.007
		c0.088,0,0.175,0,0.287,0c0,0.83,0,1.644,0,2.496c-0.106,0-0.211,0-0.314,0c-1.525,0-3.051,0.004-4.576-0.005
		c-0.222-0.002-0.333,0.061-0.446,0.265c-0.758,1.365-1.862,2.269-3.482,2.231c-1.528-0.033-2.575-0.915-3.297-2.204
		c-0.123-0.22-0.239-0.294-0.488-0.294c-4,0.01-7.999,0.008-11.998,0.008C0.77,14.258,0.653,14.258,0.5,14.258z M16.745,14.255
		c0.7,0.003,1.252-0.54,1.255-1.234c0.002-0.7-0.54-1.251-1.235-1.255c-0.7-0.004-1.249,0.537-1.255,1.235
		S16.048,14.251,16.745,14.255z"/>
</g>
</svg>
