<svg xmlns="http://www.w3.org/2000/svg" width="26" height="26"><g fill-rule="evenodd" clip-rule="evenodd" fill="silver"><path d="M26 3.6l-.5 1c-.4.7-1.1.9-1.9.9H2.4c-.6 0-1.1-.1-1.6-.5-.4-.3-.6-.7-.7-1.2v-.2-.5c0-.4.1-.8.3-1 .5-.8 1.2-1 2-1H24c.4 0 .8.2 1.1.5.5.4.8.9.9 1.5v.5zM0 22.4l.4-1c.5-.6 1.1-.9 1.9-.9h21.2c.5 0 1 0 1.3.3.6.3 1 .8 1.1 1.4v.7c0 .4-.1.8-.4 1-.4.7-1 1-1.8 1H2.2 2A2 2 0 0 1 .5 24c-.3-.3-.4-.7-.5-1.2v-.5zM0 12.7l.4-1c.4-.6 1-.9 1.8-.9h21.4c.6 0 1.2.1 1.7.6.4.4.6.8.7 1.3v.6c-.1.4-.2.8-.5 1-.4.5-.9.8-1.5.8H2.3c-.7 0-1.4-.2-1.9-.8l-.4-1v-.6z"/></g></svg>