<svg xmlns="http://www.w3.org/2000/svg" width="26" height="26"><g fill-rule="evenodd" clip-rule="evenodd"><path d="M13.5.5l1.6.3c2.8.7 4.8 2.4 6 5 .9 2 1 4 .3 5.9a85.5 85.5 0 0 1-7.8 13.4l-.5.4h-.3l-.3-.3a76 76 0 0 1-6.4-10A22 22 0 0 1 4.4 11 8.7 8.7 0 0 1 8 2 8.6 8.6 0 0 1 11.7.7l.8-.1h1zM13 24.1l.1-.2a90.8 90.8 0 0 0 7-11.9A7.2 7.2 0 0 0 19 4.3a7.6 7.6 0 0 0-4.8-2.6c-2-.3-3.9.1-5.5 1.3a7.6 7.6 0 0 0-3.3 7.3A16 16 0 0 0 6.8 14c1.2 2.6 2.8 5 4.4 7.4L13 24z"/><path d="M13.5 13.8v1.1h-1v-.8c0-.2 0-.3-.2-.3A2.8 2.8 0 0 1 10 11l1.6-.2c.1.6.4 1 1 1.4v-1V10c0-.2-.1-.3-.3-.3a3 3 0 0 1-1.4-.9C10.2 8 10 7 10.3 6c.3-.9 1-1.4 2-1.6h.2v-.6h1v.6c.6 0 1.3.3 1.7.8.3.4.5.8.6 1.3l-1 .2h-.5l-.3-.4-.5-.6v2.5l1 .4c1 .4 1.6 1.2 1.6 2.3 0 1.3-.7 2.2-1.8 2.6l-.8.3zm0-1.4c.6-.2 1-.7 1-1.3 0-.6-.5-1-1-1.1v2.4zm-1-6.6c-.5.1-.8.6-.7 1 0 .5.3 1 .7 1v-2z"/></g></svg>