<svg xmlns="http://www.w3.org/2000/svg" width="26" height="26"><path fill-rule="evenodd" clip-rule="evenodd" d="M.5 13.6v-1.2-.2a9 9 0 0 1 1.2-3.8c1.5-2.6 3.8-4.3 6.6-5.2 2.4-.7 4.8-.7 7.2-.2h.3c1-1 2.2-1.6 3.5-1.8a1.4 1.4 0 0 1 1.5 2.1c-.3.5-.5 1-.5 1.4 0 .5 0 .8.4 1.2 1 1 1.9 2.1 2.5 3.5 0 .2.1.2.4.2.5 0 1 .2 1.4.6.3.3.4.7.5 1v3.4c-.4 1.2-.8 1.5-2 1.6 0 0-.2 0-.2.2-.6 1.5-1.6 2.9-2.9 4a3 3 0 0 0-1 2l-.1 1.1c0 .7-.5 1.3-1.3 1.3h-4c-.5 0-1-.4-1.1-1v-.5h-1.7c0 1-.5 1.5-1.5 1.5H6.2c-1 0-1.4-.5-1.5-1.5 0-.7-.1-1.3-.4-2L3 19.9A12 12 0 0 1 .7 15l-.2-1.4zm17.4 9.8V23c0-1.6.6-2.8 1.7-3.9.5-.4 1-.9 1.3-1.4.6-.7 1-1.6 1.3-2.4.1-.4.3-.6.8-.6h.6c.3 0 .5-.2.5-.5v-2.8c0-.3-.2-.5-.5-.5H23c-.5 0-.7-.1-.9-.5l-.5-1.2a9 9 0 0 0-2.2-2.7L19 6c-.2-.8-.2-1.6 0-2.4l.5-1a4 4 0 0 0-2 .7 7 7 0 0 0-.9.8c-.3.4-.5.5-.8.4-.7-.3-1.4-.4-2-.5-2.1-.2-4.2 0-6.2.9S4 7.3 2.8 9.3a7.5 7.5 0 0 0-.6 5.7c.4 1.6 1.1 3 2.3 4.2.5.7 1 1.4 1.3 2.2l.4 2h3.6v-.8c0-.5.3-.8.8-.8 1 .1 2 .2 2.9 0 .4 0 .7.3.7.8v.8H18z"/></svg>