<svg xmlns="http://www.w3.org/2000/svg" width="26" height="26"><g fill-rule="evenodd" clip-rule="evenodd"><path d="M13.1.9l1 .2A3 3 0 0 1 13 7a3 3 0 0 1-.3-6l.2-.1h.2zM14.8 4c0-1-.7-1.7-1.7-1.8-1-.1-1.8.6-1.9 1.7 0 .9.7 1.8 1.7 1.8s1.8-.6 1.9-1.7zM3.7.9l.9.2a3 3 0 0 1 2 3.4 3 3 0 0 1-3 2.5 3 3 0 0 1-3-2.6H.4v-.8-.1a3 3 0 0 1 2-2.4l1-.2h.2zm-2 3a1.8 1.8 0 1 0 3.6 0c0-1-.8-1.7-1.7-1.7-1 0-1.8.8-1.8 1.7zM12.9 25.1l-1.2-.3a3 3 0 0 1-1.6-3.5 3 3 0 0 1 3-2.3 3 3 0 0 1 .2 6l-.2.1H13zM11.2 22c0 1 .7 1.8 1.7 2a1.8 1.8 0 0 0 .3-3.6c-1-.1-1.9.6-2 1.6zM25.5 4.3c-.1.4-.2.9-.5 1.2a3 3 0 0 1-3.5 1.3A3 3 0 0 1 22 1h.7a3 3 0 0 1 2.4 1.8l.3.9v.7zM24.2 4c0-1-.8-1.7-1.7-1.7-1 0-1.8.8-1.8 1.7 0 1 .8 1.8 1.8 1.8S24.2 5 24.2 4zM.5 21.7c.1-.4.2-.9.5-1.2a3 3 0 0 1 3.5-1.3A3 3 0 0 1 4 25h-.5-.1a3 3 0 0 1-2.7-2.4l-.1-.3v-.7zm1.3.4c0 1 .8 1.7 1.8 1.7s1.7-.8 1.7-1.7c0-1-.8-1.8-1.8-1.8S1.8 21 1.8 22zM22.3 25.1c-.5 0-1-.2-1.4-.5a3 3 0 1 1 4.6-3v.9a3 3 0 0 1-1.5 2.2l-1.4.4h-.3zm2-3c0-1-.9-1.8-1.9-1.8-1 0-1.7.8-1.7 1.7a1.8 1.8 0 0 0 3.6 0zM.5 12.6l.3-1a3 3 0 0 1 5.8 1.7A3 3 0 0 1 3.9 16a3 3 0 0 1-3.4-2.5v-.1-.8zm3-1.4c-1.1.1-1.8 1-1.7 2 0 .9 1 1.6 1.8 1.6 1 0 1.8-1 1.7-1.8 0-1-.9-1.8-1.8-1.8zM25.5 13.4l-.3 1a3 3 0 0 1-3.4 1.6 3 3 0 0 1-2.4-3.1 3 3 0 0 1 6-.4l.1.1v.8zm-1.3-.4c0-1-.8-1.8-1.8-1.8s-1.7.8-1.7 1.8.8 1.8 1.8 1.8 1.7-.8 1.7-1.8zM16 13a3 3 0 1 1-3-3 3 3 0 0 1 3 3zm-3 1.8c.9 0 1.7-.7 1.8-1.7 0-1-.7-1.8-1.7-1.9-1 0-1.8.7-1.9 1.7 0 1 .7 1.8 1.7 1.9z"/></g></svg>