<svg xmlns="http://www.w3.org/2000/svg" width="26" height="26"><path fill-rule="evenodd" clip-rule="evenodd" d="M12.5.5h1.2c2 .4 3.4 1.6 4 3.6.2.4.2.8.3 1.3h2.7c.6 0 .8.2.9.7l.2 2.3.5 5.8.6 6.5.1 1.2v.6c-.3 1.4-1 2.2-2.3 2.7-.3.2-.7.2-1 .3H6.3h-.2a3.6 3.6 0 0 1-2.8-2l-.3-1V22v-.2l.2-1.8.6-6.9.6-6.9c0-.5.3-.7.9-.7H8v-.2A5 5 0 0 1 11.5.7l1-.2zM5.8 6.8L5 13.6 4.4 22c0 .5.1 1 .5 1.4.5.5 1.2.7 2 .7H19c.5 0 1 0 1.4-.3.7-.3 1.2-1 1.1-1.9l-.1-1.6-.6-5.8-.5-6.5-.2-1.2H18v2c0 .5-.3.7-.7.7a.7.7 0 0 1-.6-.6v-.6-1.5H9.4v2.1c0 .3-.3.6-.7.6-.3 0-.6-.3-.6-.7v-.5-1.5H5.8zm3.6-1.5h7.2c-.1-1.2-.6-2.2-1.7-2.9a3.4 3.4 0 0 0-3.8 0c-1 .7-1.6 1.7-1.7 3z"/></svg>