<svg xmlns="http://www.w3.org/2000/svg" width="26" height="26"><g fill-rule="evenodd" clip-rule="evenodd" fill="#FFF"><path d="M25.9 23.7c0-1-.3-1.8-.7-2.7a8.4 8.4 0 0 0-7.8-5.2H8.6a8.5 8.5 0 0 0-8.2 6.6l-.2 1.5v.7c.1.4.4.6.7.7h24.3c.3 0 .6-.3.7-.7V24v-.2zM2 23.5l.4-1.3a6.7 6.7 0 0 1 6.5-4.6h8.3a6.7 6.7 0 0 1 6.8 5.9H2zM12.6 14.5c1.9.1 3.5-.4 4.9-1.6a6.6 6.6 0 0 0 2.1-7C19 3.3 17.3 1.8 15 1c-.5-.2-1-.2-1.6-.3h-1.1c-2.2.4-4 1.5-5.1 3.4A6.5 6.5 0 0 0 7 11a6.6 6.6 0 0 0 5.6 3.5zm.5-12a5 5 0 0 1 5 5.3 5 5 0 1 1-5-5.2z"/></g><path fill-rule="evenodd" clip-rule="evenodd" fill="#FFF" d="M.2 24.6c.1.4.4.6.7.7H.2v-.7zM25.2 25.3c.3 0 .6-.3.7-.7v.7h-.7z"/></svg>